<?xml version="1.0" encoding="UTF-8" standalone="no"?>
<!-- Generator: Adobe Illustrator 16.0.0, SVG Export Plug-In . SVG Version: 6.00 Build 0)  -->

<svg
   xmlns:dc="http://purl.org/dc/elements/1.1/"
   xmlns:cc="http://creativecommons.org/ns#"
   xmlns:rdf="http://www.w3.org/1999/02/22-rdf-syntax-ns#"
   xmlns:svg="http://www.w3.org/2000/svg"
   xmlns="http://www.w3.org/2000/svg"
   xmlns:sodipodi="http://sodipodi.sourceforge.net/DTD/sodipodi-0.dtd"
   xmlns:inkscape="http://www.inkscape.org/namespaces/inkscape"
   version="1.1"
   id="Layer_1"
   x="0px"
   y="0px"
   width="435.70001"
   height="275.70001"
   viewBox="0 0 435.70001 275.70001"
   enable-background="new 0 0 512 512"
   xml:space="preserve"
   sodipodi:docname="cloud.svg"
   inkscape:version="0.92.3 (unknown)"><metadata
   id="metadata9"><rdf:RDF><cc:Work
       rdf:about=""><dc:format>image/svg+xml</dc:format><dc:type
         rdf:resource="http://purl.org/dc/dcmitype/StillImage" /><dc:title></dc:title></cc:Work></rdf:RDF></metadata><defs
   id="defs7" /><sodipodi:namedview
   pagecolor="#ffffff"
   bordercolor="#666666"
   borderopacity="1"
   objecttolerance="10"
   gridtolerance="10"
   guidetolerance="10"
   inkscape:pageopacity="0"
   inkscape:pageshadow="2"
   inkscape:window-width="861"
   inkscape:window-height="491"
   id="namedview5"
   showgrid="false"
   inkscape:zoom="0.23046875"
   inkscape:cx="55.901588"
   inkscape:cy="-57.104053"
   inkscape:window-x="119"
   inkscape:window-y="636"
   inkscape:window-maximized="0"
   inkscape:current-layer="Layer_1"
   fit-margin-top="0"
   fit-margin-left="0"
   fit-margin-right="0"
   fit-margin-bottom="0" />
<path
   d="m 425.85,201.35 c 0,35.344 -28.656,64 -64,64 v 0.5 h -272 c -44.188,0 -79.9999996,-35.813 -79.9999996,-80 0,-38.75 27.5629996,-71.063 64.1559996,-78.406 0,-0.531 -0.156,-1.031 -0.156,-1.594 0,-53.031 42.969,-95.9999996 96,-95.9999996 37.438,0 69.5,21.6249996 85.344,52.8749996 8.375,-2.938 17.25,-4.875 26.656,-4.875 43.844,0 79.344,35.25 79.906,79 h 0.094 v 0.5 c 35.344,0 64,28.656 64,64 z"
   id="path2"
   style="fill:#f9a825;fill-opacity:0.5618729;stroke:#000000;stroke-width:19.70000076;stroke-linecap:round;stroke-linejoin:round;stroke-miterlimit:4;stroke-dasharray:none;stroke-opacity:1"
   inkscape:connector-curvature="0"
   sodipodi:nodetypes="sccsscsscscccs" />
</svg>