<?xml version="1.0" encoding="UTF-8"?>
<!-- Generator: Adobe Illustrator 16.0.0, SVG Export Plug-In . SVG Version: 6.00 Build 0)  -->
<svg width="435.7" height="275.7" enable-background="new 0 0 512 512" version="1.1" viewBox="0 0 435.7 275.7" xml:space="preserve" xmlns="http://www.w3.org/2000/svg" xmlns:cc="http://creativecommons.org/ns#" xmlns:dc="http://purl.org/dc/elements/1.1/" xmlns:rdf="http://www.w3.org/1999/02/22-rdf-syntax-ns#"><metadata><rdf:RDF><cc:Work rdf:about=""><dc:format>image/svg+xml</dc:format><dc:type rdf:resource="http://purl.org/dc/dcmitype/StillImage"/><dc:title/></cc:Work></rdf:RDF></metadata>
<path d="m425.85 201.35c0 35.344-28.656 64-64 64v0.5h-272c-44.188 0-80-35.813-80-80 0-38.75 27.563-71.063 64.156-78.406 0-0.531-0.156-1.031-0.156-1.594 0-53.031 42.969-96 96-96 37.438 0 69.5 21.625 85.344 52.875 8.375-2.938 17.25-4.875 26.656-4.875 43.844 0 79.344 35.25 79.906 79h0.094v0.5c35.344 0 64 28.656 64 64z" fill="#f9a825" fill-opacity=".56187" stroke="#000" stroke-linecap="round" stroke-linejoin="round" stroke-width="3.2"/>
</svg>
