<?xml version="1.0" encoding="UTF-8" standalone="no"?>
<!--<div>Icons made by <a href="http://www.freepik.com" title="Freepik">Freepik</a> from <a href="https://www.flaticon.com/" title="Flaticon">www.flaticon.com</a> is licensed by <a href="http://creativecommons.org/licenses/by/3.0/" title="Creative Commons BY 3.0" target="_blank">CC 3.0 BY</a></div>-->

<!-- Generator: Adobe Illustrator 19.0.0, SVG Export Plug-In . SVG Version: 6.00 Build 0)  -->

<svg
   xmlns:dc="http://purl.org/dc/elements/1.1/"
   xmlns:cc="http://creativecommons.org/ns#"
   xmlns:rdf="http://www.w3.org/1999/02/22-rdf-syntax-ns#"
   xmlns:svg="http://www.w3.org/2000/svg"
   xmlns="http://www.w3.org/2000/svg"
   xmlns:sodipodi="http://sodipodi.sourceforge.net/DTD/sodipodi-0.dtd"
   xmlns:inkscape="http://www.inkscape.org/namespaces/inkscape"
   version="1.1"
   id="Layer_1"
   x="0px"
   y="0px"
   viewBox="0 0 512 512"
   width="16px"
   height="16px"
   xml:space="preserve"
   sodipodi:docname="pen.svg"
   inkscape:version="0.92.3 (unknown)"><metadata
   id="metadata1253"><rdf:RDF><cc:Work
       rdf:about=""><dc:format>image/svg+xml</dc:format><dc:type
         rdf:resource="http://purl.org/dc/dcmitype/StillImage" /><dc:title></dc:title></cc:Work></rdf:RDF></metadata><defs
   id="defs1251" /><sodipodi:namedview
   pagecolor="#ffffff"
   bordercolor="#666666"
   borderopacity="1"
   objecttolerance="10"
   gridtolerance="10"
   guidetolerance="10"
   inkscape:pageopacity="0"
   inkscape:pageshadow="2"
   inkscape:window-width="847"
   inkscape:window-height="491"
   id="namedview1249"
   showgrid="false"
   inkscape:zoom="5.2149125"
   inkscape:cx="3.1961961"
   inkscape:cy="4.475585"
   inkscape:window-x="67"
   inkscape:window-y="27"
   inkscape:window-maximized="0"
   inkscape:current-layer="Layer_1" />
<polygon
   style="fill:#4c3fbe;fill-opacity:1"
   points="512,50.287 298.22,302.631 238.045,258.211 486.847,25.149 "
   id="polygon1198" />
<polygon
   style="fill:#ada8e2;fill-opacity:1"
   points="486.847,25.149 245.915,266.081 209.356,213.784 461.701,0.004 "
   id="polygon1200" />
<path
   style="fill:#FFB55F;"
   d="M143.467,470.842L0,511.996l135.739-151.479l25.145,40.886  C142.577,419.709,137.077,446.319,143.467,470.842z"
   id="path1202" />
<polygon
   style="fill:#55A7A2;"
   points="298.22,302.631 233.243,379.335 167.212,329.044 253.785,258.211 "
   id="polygon1204" />
<path
   style="fill:#FFCC75;"
   d="M143.609,368.387L0,511.996L41.154,368.53c24.523,6.391,51.133,0.889,69.439-17.417L143.609,368.387z  "
   id="path1206" />
<g
   id="g1212">
	<polygon
   style="fill:#98D9D5;"
   points="253.785,258.211 175.082,336.914 132.669,278.745 209.356,213.784  "
   id="polygon1208" />
	<polygon
   style="fill:#98D9D5;"
   points="233.243,379.335 160.884,401.403 135.739,376.257 143.451,337.063 182.952,329.044  "
   id="polygon1210" />
</g>
<polygon
   style="fill:#C1E8E6;"
   points="182.952,329.044 135.739,376.257 110.593,351.112 132.669,278.745 "
   id="polygon1214" />
<rect
   x="63.805"
   y="414.787"
   transform="matrix(-0.7071 0.7071 -0.7071 -0.7071 442.527 679.6635)"
   style="fill:#FF6E1D;"
   width="33.39"
   height="33.39"
   id="rect1216" />
<g
   id="g1218">
</g>
<g
   id="g1220">
</g>
<g
   id="g1222">
</g>
<g
   id="g1224">
</g>
<g
   id="g1226">
</g>
<g
   id="g1228">
</g>
<g
   id="g1230">
</g>
<g
   id="g1232">
</g>
<g
   id="g1234">
</g>
<g
   id="g1236">
</g>
<g
   id="g1238">
</g>
<g
   id="g1240">
</g>
<g
   id="g1242">
</g>
<g
   id="g1244">
</g>
<g
   id="g1246">
</g>
<rect
   id="rect1798"
   height="33.39"
   width="33.39"
   style="fill:#FF6E1D;"
   transform="matrix(-0.7071 0.7071 -0.7071 -0.7071 442.527 679.6635)"
   y="414.787"
   x="63.805" /></svg>