<svg viewBox="0 0 100 100" xmlns="http://www.w3.org/2000/svg" xmlns:xlink="http://www.w3.org/1999/xlink" width="100" height="100">
<defs>



<g id="bg" fill="#ff9311" class="bg"><path d="M0,50a50,50 0 1,0 100,0a50,50 0 1,0 -100,0"/></g><g id="fg"><path opacity="0.1" d="M85.355,14.645l-70.711,70.71c19.526,19.526,51.185,19.526,70.711,0 C104.882,65.83,104.882,34.171,85.355,14.645z"/><path opacity="0.1" d="M50,0v100c27.614,0,50-22.386,50-50S77.614,0,50,0z"/></g> 
 <path fill="#002a4a" id="i-427" d="M25,36.09v3.48l9.575,6.701l-1.146,1.639L25,42.012v2.078h-2v-2.078l-8.426,5.898l-1.146-1.639L23,39.57v-3.48H0v-32h23v-4 h2v4h23v32H25z"/> 
</defs>
<use x="0" y="0" class="bg" xlink:href="#bg"/>
<use x="26" y="26" xlink:href="#i-427"/>
<use x="0" y="0" xlink:href="#fg"/>
</svg>