<?xml version="1.0" encoding="UTF-8" standalone="no"?>
<!-- Generator: Adobe Illustrator 18.0.0, SVG Export Plug-In . SVG Version: 6.00 Build 0)  -->

<svg
   xmlns:dc="http://purl.org/dc/elements/1.1/"
   xmlns:cc="http://creativecommons.org/ns#"
   xmlns:rdf="http://www.w3.org/1999/02/22-rdf-syntax-ns#"
   xmlns:svg="http://www.w3.org/2000/svg"
   xmlns="http://www.w3.org/2000/svg"
   xmlns:sodipodi="http://sodipodi.sourceforge.net/DTD/sodipodi-0.dtd"
   xmlns:inkscape="http://www.inkscape.org/namespaces/inkscape"
   version="1.1"
   id="Calque_1"
   x="0px"
   y="0px"
   viewBox="0 0 174.8609 151.1"
   enable-background="new 0 0 640 280"
   xml:space="preserve"
   sodipodi:docname="Vert.x_Logo.svg"
   width="174.8609"
   height="151.10001"
   inkscape:version="0.92.3 (unknown)"><metadata
   id="metadata23"><rdf:RDF><cc:Work
       rdf:about=""><dc:format>image/svg+xml</dc:format><dc:type
         rdf:resource="http://purl.org/dc/dcmitype/StillImage" /><dc:title /></cc:Work></rdf:RDF></metadata><defs
   id="defs21" /><sodipodi:namedview
   pagecolor="#ffffff"
   bordercolor="#666666"
   borderopacity="1"
   objecttolerance="10"
   gridtolerance="10"
   guidetolerance="10"
   inkscape:pageopacity="0"
   inkscape:pageshadow="2"
   inkscape:window-width="863"
   inkscape:window-height="491"
   id="namedview19"
   showgrid="false"
   fit-margin-top="0"
   fit-margin-left="1.1"
   fit-margin-right="0"
   fit-margin-bottom="1.1"
   inkscape:zoom="0.788866"
   inkscape:cx="160.03237"
   inkscape:cy="76.033542"
   inkscape:window-x="67"
   inkscape:window-y="27"
   inkscape:window-maximized="0"
   inkscape:current-layer="Calque_1" />




<path
   d="m 37.6,131.5 c 0,-9.9 -8.1,-18 -18,-18 -9.9,0 -18,8.1 -18,18 0,9.9 8.1,18 18,18 9.9,0 18,-8.1 18,-18"
   id="path10"
   inkscape:connector-curvature="0"
   style="fill:#37a537;fill-opacity:1;stroke:#151515;stroke-opacity:0.57647061;stroke-width:1.3;stroke-miterlimit:4;stroke-dasharray:none" />
<g
   id="g16"
   transform="translate(-420.4,-71.5)"
   style="fill:#37a537;fill-opacity:1;stroke:#151515;stroke-opacity:0.57647061;stroke-linejoin:round;stroke-width:1.3;stroke-miterlimit:4;stroke-dasharray:none">
	<path
   d="m 577.4,72 h -6.2 -17 L 526.7,109.8 499.1,72 h -17 -6.4 -17 c 12.1,16 33.6,46.8 47.8,66.3 l -37,50.9 c 2,4.2 3.1,8.9 3.1,13.8 0,0.3 0,0.7 0,1 h 3.2 6.4 16.8 L 594.2,72 Z"
   id="path12"
   inkscape:connector-curvature="0"
   style="fill:#37a537;fill-opacity:1;stroke:#151515;stroke-opacity:0.57647061;stroke-linejoin:round;stroke-width:1.3;stroke-miterlimit:4;stroke-dasharray:none" />
	<path
   d="m 557.7,153.5 -20.1,27.9 16.5,22.6 h 17 6.2 17 c -9.6,-13.7 -24,-33.3 -36.6,-50.5 z"
   id="path14"
   inkscape:connector-curvature="0"
   style="fill:#37a537;fill-opacity:1;stroke:#151515;stroke-opacity:0.57647061;stroke-linejoin:round;stroke-width:1.3;stroke-miterlimit:4;stroke-dasharray:none" />
</g>
</svg>